<svg width="846" height="134" viewBox="0 0 846 134" fill="none" xmlns="http://www.w3.org/2000/svg">
<g clip-path="url(#clip0_1781_5866)">
<g clip-path="url(#clip1_1781_5866)">
<path d="M889.857 -30.183C882.521 -18.6102 868.822 -23.1737 866.287 -38.357C865.641 -42.2175 865.844 -46.2637 867.359 -50.3438C870.814 -59.6382 876.205 -59.7041 880.286 -57.9548C883.375 -56.6321 886.219 -60.849 885.084 -65.1577C883.062 -72.8263 877.12 -81.2549 860.403 -78.8926C843.477 -76.5007 823.558 -49.4981 811.313 -30.183C803.976 -18.6102 790.277 -23.1737 787.742 -38.357C787.096 -42.2175 787.299 -46.2637 788.814 -50.3438C792.27 -59.6382 797.66 -59.7041 801.742 -57.9548C804.83 -56.6321 807.676 -60.849 806.54 -65.1577C804.518 -72.8263 798.575 -81.2549 781.858 -78.8926C764.932 -76.5007 745.013 -49.4981 732.768 -30.183C725.431 -18.6102 711.732 -23.1737 709.197 -38.357C708.551 -42.2175 708.754 -46.2637 710.27 -50.3438C713.725 -59.6382 719.115 -59.7041 723.196 -57.9548C726.285 -56.6321 729.131 -60.849 727.995 -65.1577C725.973 -72.8263 720.031 -81.2549 703.314 -78.8926C686.388 -76.5007 666.468 -49.4981 654.223 -30.183C646.886 -18.6102 633.188 -23.1737 630.652 -38.357C630.008 -42.2175 630.209 -46.2637 631.727 -50.3438C635.181 -59.6382 640.57 -59.7041 644.653 -57.9548C647.741 -56.6321 650.586 -60.849 649.45 -65.1577C647.428 -72.8263 641.486 -81.2549 624.77 -78.8926C607.843 -76.5007 587.924 -49.4981 575.68 -30.183C568.344 -18.6102 554.643 -23.1737 552.108 -38.357C551.464 -42.2175 551.664 -46.2637 553.182 -50.3438C556.636 -59.6382 562.026 -59.7041 566.108 -57.9548C569.197 -56.6321 572.041 -60.849 570.905 -65.1577C568.883 -72.8263 562.941 -81.2549 546.226 -78.8926C529.299 -76.5007 509.38 -49.4981 497.136 -30.183C489.799 -18.6102 476.098 -23.1737 473.563 -38.357C472.919 -42.2175 473.122 -46.2637 474.637 -50.3438C478.092 -59.6382 483.483 -59.7041 487.563 -57.9548C490.651 -56.6321 493.499 -60.849 492.361 -65.1577C490.339 -72.8263 484.396 -81.2549 467.681 -78.8926C450.755 -76.5007 430.836 -49.4981 418.591 -30.183C411.254 -18.6102 397.555 -23.1737 395.019 -38.357C394.374 -42.2175 394.576 -46.2637 396.092 -50.3438C399.548 -59.6402 404.939 -59.7041 409.02 -57.9548C412.11 -56.6289 414.951 -60.8738 413.81 -65.1825C411.781 -72.844 405.834 -81.2533 389.136 -78.8926C372.21 -76.5007 352.291 -49.4981 340.046 -30.183C332.71 -18.6102 319.01 -23.1737 316.475 -38.357C315.829 -42.2175 316.032 -46.2637 317.548 -50.3438C321.003 -59.6382 326.393 -59.7041 330.474 -57.9548C333.563 -56.6321 336.409 -60.849 335.273 -65.1577C333.25 -72.8263 327.309 -81.2549 310.592 -78.8926C293.665 -76.5007 273.746 -49.4981 261.502 -30.183C254.165 -18.6102 240.465 -23.1737 237.93 -38.357C237.285 -42.2175 237.488 -46.2637 239.004 -50.3438C242.459 -59.6382 247.848 -59.7041 251.93 -57.9548C255.018 -56.6321 257.864 -60.849 256.728 -65.1577C254.705 -72.8263 248.764 -81.2549 232.047 -78.8926C215.121 -76.5007 195.202 -49.4981 182.957 -30.183C175.62 -18.6102 161.921 -23.1737 159.386 -38.357C158.741 -42.2175 158.943 -46.2637 160.46 -50.3438C163.914 -59.6382 169.304 -59.7041 173.386 -57.9548C176.474 -56.6321 179.32 -60.849 178.183 -65.1577C176.161 -72.8263 170.219 -81.2549 153.504 -78.8926C136.577 -76.5007 116.658 -49.4981 104.414 -30.183C97.0768 -18.6102 83.3761 -23.1737 80.8411 -38.357C80.1968 -42.2175 80.3982 -46.2637 81.9146 -50.3438C85.3693 -59.6382 90.7605 -59.7041 94.842 -57.9548C97.9316 -56.6305 100.775 -60.8525 99.6383 -65.1613C97.6154 -72.8278 91.6718 -81.2549 74.9587 -78.8926C58.0314 -76.5007 38.1124 -49.4981 25.8688 -30.183C18.5317 -18.6102 4.8324 -23.1737 2.2963 -38.357C1.65171 -42.2175 1.85332 -46.2637 3.36979 -50.3438C6.82554 -59.6382 12.2142 -59.7041 16.2958 -57.9548C19.3845 -56.6321 22.2313 -60.849 21.0946 -65.1577C19.0727 -72.8263 13.1303 -81.2549 -3.58509 -78.8926C-13.6872 -77.465 -24.854 -67.2705 -34.8203 -55.1753V56.501C-18.9461 50.6775 -1.33317 26.6003 9.86345 8.93796C17.1992 -2.63484 30.8985 1.93019 33.4338 17.112C34.0792 20.974 33.8778 25.0202 32.36 29.0991C28.9056 38.3935 23.5155 38.4609 19.434 36.7112C16.3455 35.3873 13.5009 39.6043 14.6366 43.913C16.6584 51.5812 22.6008 60.0114 39.3174 57.649C56.2432 55.2575 76.1622 28.2546 88.4072 8.93796C95.744 -2.63484 109.444 1.93019 111.979 17.112C112.623 20.974 112.422 25.0202 110.906 29.0991C107.45 38.3935 102.06 38.4609 97.9788 36.7112C94.8904 35.3873 92.0447 39.6043 93.1803 43.913C95.2033 51.5812 101.146 60.0114 117.862 57.649C134.788 55.2575 154.707 28.2546 166.952 8.93796C174.288 -2.63484 187.987 1.93019 190.523 17.112C191.168 20.974 190.966 25.0202 189.449 29.0991C185.995 38.3935 180.605 38.4609 176.524 36.7112C173.435 35.3873 170.59 39.6043 171.725 43.913C173.747 51.5812 179.691 60.0114 196.406 57.649C213.332 55.2575 233.252 28.2546 245.497 8.93796C252.833 -2.63484 266.532 1.93019 269.068 17.112C269.713 20.974 269.51 25.0202 267.995 29.0991C264.539 38.3935 259.149 38.4609 255.067 36.7112C251.979 35.3873 249.133 39.6043 250.269 43.913C252.292 51.5812 258.234 60.0114 274.951 57.649C291.877 55.2575 311.796 28.2546 324.041 8.93796C331.377 -2.63484 345.077 1.93019 347.612 17.112C348.258 20.974 348.055 25.0202 346.539 29.0991C343.084 38.3935 337.694 38.4609 333.613 36.7112C330.524 35.3873 327.678 39.6043 328.814 43.913C330.837 51.5812 336.779 60.0114 353.495 57.649C370.422 55.2575 390.341 28.2546 402.584 8.93796C409.923 -2.63484 423.621 1.93019 426.157 17.112C426.801 20.974 426.599 25.0202 425.083 29.0991C421.629 38.3935 416.238 38.4609 412.157 36.7112C409.069 35.3873 406.222 39.6043 407.358 43.913C409.38 51.5812 415.323 60.0114 432.039 57.649C448.966 55.2575 468.886 28.253 481.13 8.93796C488.466 -2.63484 502.166 1.93019 504.702 17.112C505.346 20.974 505.145 25.0202 503.627 29.0991C500.173 38.3951 494.783 38.4609 490.7 36.7097C487.61 35.3858 484.77 39.6303 485.911 43.9375C487.939 51.5993 493.886 60.0082 510.583 57.649C527.51 55.2575 547.429 28.2546 559.673 8.93796C567.01 -2.63484 580.711 1.93019 583.246 17.112C583.89 20.974 583.689 25.0202 582.172 29.0991C578.717 38.3935 573.328 38.4609 569.246 36.7112C566.158 35.3873 563.313 39.6043 564.449 43.913C566.47 51.5812 572.413 60.0114 589.128 57.649C606.055 55.2575 625.974 28.2546 638.218 8.93796C645.555 -2.63484 659.255 1.93019 661.791 17.112C662.435 20.974 662.232 25.0202 660.717 29.0991C657.261 38.3935 651.871 38.4609 647.791 36.7112C644.701 35.3873 641.855 39.6043 642.992 43.913C645.015 51.5812 650.957 60.0114 667.673 57.649C684.6 55.2575 704.518 28.2546 716.763 8.93796C724.1 -2.63484 737.799 1.93019 740.334 17.112C740.98 20.974 740.777 25.0202 739.262 29.0991C735.806 38.3935 730.416 38.4609 726.335 36.7112C723.246 35.3873 720.4 39.6043 721.537 43.913C723.558 51.5812 729.5 60.0114 746.218 57.649C763.144 55.2575 783.063 28.2546 795.308 8.93796C802.645 -2.63484 816.343 1.93019 818.879 17.112C819.525 20.974 819.322 25.0202 817.806 29.0991C814.351 38.3935 808.96 38.4609 804.878 36.7112C801.789 35.3858 798.945 39.6074 800.082 43.9162C802.105 51.5827 808.049 60.0114 824.762 57.649C841.689 55.2575 861.607 28.2546 873.853 8.93796C881.189 -2.63484 894.888 1.93019 897.424 17.112C898.068 20.974 897.867 25.0202 896.35 29.0991C892.896 38.3935 887.505 38.4609 883.423 36.7112C880.336 35.3873 877.49 39.6043 878.626 43.913C880.648 51.5812 886.59 60.0114 903.305 57.649C913.058 56.2711 923.803 46.7185 933.504 35.1768V-77.3384C917.903 -70.8763 900.811 -47.461 889.857 -30.183V-30.183Z" fill="#1F2937"/>
<path d="M889.857 123.927C882.521 135.405 868.822 130.88 866.287 115.822C865.641 111.993 865.844 107.98 867.359 103.935C870.814 94.7184 876.205 94.6535 880.286 96.3867C883.375 97.6995 886.219 93.5162 885.084 89.2449C883.062 81.6407 877.119 73.2822 860.403 75.6233C843.477 77.9969 823.558 104.774 811.313 123.927C803.976 135.405 790.277 130.88 787.742 115.822C787.096 111.993 787.299 107.98 788.814 103.935C792.27 94.7184 797.66 94.6535 801.742 96.3867C804.83 97.6995 807.676 93.5162 806.54 89.2449C804.518 81.6407 798.575 73.2822 781.858 75.6233C764.932 77.9969 745.013 104.774 732.768 123.927C725.431 135.405 711.732 130.88 709.197 115.822C708.551 111.993 708.754 107.98 710.27 103.935C713.725 94.7184 719.115 94.6535 723.196 96.3867C726.285 97.6995 729.131 93.5162 727.995 89.2449C725.973 81.6407 720.031 73.2822 703.314 75.6233C686.388 77.9969 666.468 104.774 654.223 123.927C646.886 135.405 633.188 130.88 630.652 115.822C630.008 111.993 630.209 107.98 631.727 103.935C635.181 94.7184 640.57 94.6535 644.653 96.3867C647.741 97.6995 650.586 93.5162 649.45 89.2449C647.428 81.6407 641.486 73.2822 624.77 75.6233C607.843 77.9969 587.924 104.774 575.68 123.927C568.344 135.405 554.643 130.88 552.108 115.822C551.464 111.993 551.664 107.98 553.182 103.935C556.636 94.7184 562.026 94.6535 566.108 96.3867C569.197 97.6995 572.041 93.5162 570.905 89.2449C568.883 81.6407 562.941 73.2822 546.226 75.6233C529.299 77.9969 509.38 104.774 497.136 123.927C489.799 135.405 476.098 130.88 473.563 115.822C472.919 111.993 473.122 107.98 474.637 103.935C478.092 94.7184 483.482 94.6535 487.563 96.3867C490.651 97.6995 493.498 93.5162 492.361 89.2449C490.338 81.6407 484.396 73.2822 467.681 75.6233C450.755 77.9969 430.836 104.774 418.591 123.927C411.254 135.405 397.555 130.88 395.019 115.822C394.374 111.993 394.576 107.98 396.092 103.935C399.548 94.7169 404.939 94.6535 409.02 96.3882C412.11 97.7015 414.951 93.4935 413.81 89.2207C411.781 81.6231 405.834 73.2838 389.136 75.6233C372.21 77.9969 352.291 104.774 340.046 123.927C332.71 135.405 319.01 130.88 316.475 115.822C315.829 111.993 316.032 107.98 317.548 103.935C321.003 94.7184 326.393 94.6535 330.474 96.3867C333.563 97.6995 336.408 93.5162 335.273 89.2449C333.25 81.6407 327.309 73.2822 310.592 75.6233C293.665 77.9969 273.746 104.774 261.502 123.927C254.165 135.405 240.465 130.88 237.93 115.822C237.285 111.993 237.488 107.98 239.004 103.935C242.459 94.7184 247.848 94.6535 251.93 96.3867C255.018 97.6995 257.864 93.5162 256.728 89.2449C254.705 81.6407 248.764 73.2822 232.047 75.6233C215.121 77.9969 195.202 104.774 182.957 123.927C175.62 135.405 161.921 130.88 159.386 115.822C158.741 111.993 158.943 107.98 160.46 103.935C163.914 94.7184 169.304 94.6535 173.386 96.3867C176.474 97.6995 179.32 93.5162 178.183 89.2449C176.161 81.6407 170.219 73.2822 153.503 75.6233C136.577 77.9969 116.658 104.774 104.414 123.927C97.0768 135.405 83.3761 130.88 80.8411 115.822C80.1968 111.993 80.3982 107.98 81.9146 103.935C85.3693 94.7184 90.7605 94.6535 94.842 96.3867C97.9316 97.7015 100.775 93.5162 99.6384 89.2402C97.6154 81.6375 91.6718 73.2822 74.9586 75.6233C58.0314 77.9969 38.1124 104.774 25.8688 123.927C18.5317 135.405 4.8324 130.88 2.2963 115.822C1.65171 111.993 1.85331 107.98 3.36978 103.935C6.82554 94.7184 12.2142 94.6535 16.2958 96.3867C19.3845 97.6995 22.2313 93.5162 21.0946 89.2449C19.0727 81.6407 13.1303 73.2822 -3.58509 75.6233C-13.6872 77.039 -24.854 87.1501 -34.8203 99.1445V209.89C-18.9461 204.115 -1.33318 180.239 9.86345 162.724C17.1992 151.247 30.8985 155.773 33.4338 170.829C34.0792 174.658 33.8778 178.672 32.36 182.715C28.9056 191.934 23.5155 192 19.434 190.264C16.3455 188.951 13.5009 193.134 14.6366 197.407C16.6584 205.011 22.6008 213.371 39.3174 211.027C56.2432 208.655 76.1622 181.879 88.4072 162.724C95.744 151.247 109.444 155.773 111.979 170.829C112.623 174.658 112.422 178.672 110.906 182.715C107.45 191.934 102.06 192 97.9788 190.264C94.8904 188.951 92.0447 193.134 93.1803 197.407C95.2033 205.011 101.146 213.371 117.862 211.027C134.788 208.655 154.707 181.879 166.952 162.724C174.288 151.247 187.987 155.773 190.523 170.829C191.168 174.658 190.966 178.672 189.449 182.715C185.995 191.934 180.605 192 176.524 190.264C173.435 188.951 170.59 193.134 171.725 197.407C173.747 205.011 179.691 213.371 196.406 211.027C213.332 208.655 233.252 181.879 245.497 162.724C252.833 151.247 266.532 155.773 269.068 170.829C269.713 174.658 269.51 178.672 267.995 182.715C264.539 191.934 259.149 192 255.067 190.264C251.979 188.951 249.133 193.134 250.269 197.407C252.292 205.011 258.234 213.371 274.951 211.027C291.877 208.655 311.796 181.879 324.041 162.724C331.377 151.247 345.077 155.773 347.612 170.829C348.258 174.658 348.055 178.672 346.539 182.715C343.084 191.934 337.694 192 333.613 190.264C330.524 188.951 327.678 193.134 328.814 197.407C330.837 205.011 336.779 213.371 353.495 211.027C370.422 208.655 390.341 181.879 402.584 162.724C409.923 151.247 423.621 155.773 426.157 170.829C426.801 174.658 426.599 178.672 425.083 182.715C421.629 191.934 416.238 192 412.157 190.264C409.069 188.951 406.222 193.134 407.358 197.407C409.38 205.011 415.323 213.371 432.039 211.027C448.965 208.655 468.886 181.878 481.13 162.724C488.466 151.247 502.166 155.773 504.702 170.829C505.346 174.658 505.145 178.672 503.627 182.715C500.173 191.935 494.783 192 490.7 190.264C487.61 188.949 484.77 193.159 485.911 197.433C487.939 205.029 493.886 213.368 510.583 211.027C527.51 208.655 547.429 181.879 559.673 162.724C567.01 151.247 580.71 155.773 583.245 170.829C583.89 174.658 583.689 178.672 582.172 182.715C578.717 191.934 573.328 192 569.246 190.264C566.158 188.951 563.313 193.134 564.449 197.407C566.47 205.011 572.413 213.371 589.128 211.027C606.055 208.655 625.974 181.879 638.218 162.724C645.555 151.247 659.255 155.773 661.791 170.829C662.435 174.658 662.232 178.672 660.717 182.715C657.261 191.934 651.871 192 647.791 190.264C644.701 188.951 641.855 193.134 642.992 197.407C645.015 205.011 650.957 213.371 667.673 211.027C684.6 208.655 704.518 181.879 716.763 162.724C724.1 151.247 737.799 155.773 740.334 170.829C740.98 174.658 740.777 178.672 739.262 182.715C735.806 191.934 730.416 192 726.335 190.264C723.246 188.951 720.4 193.134 721.537 197.407C723.558 205.011 729.5 213.371 746.218 211.027C763.144 208.655 783.063 181.879 795.308 162.724C802.645 151.247 816.343 155.773 818.879 170.829C819.525 174.658 819.322 178.672 817.805 182.715C814.351 191.935 808.96 192 804.878 190.264C801.789 188.951 798.945 193.137 800.082 197.41C802.105 205.013 808.049 213.371 824.762 211.027C841.689 208.655 861.607 181.879 873.853 162.724C881.189 151.247 894.888 155.773 897.424 170.829C898.068 174.658 897.867 178.672 896.35 182.715C892.896 191.934 887.505 192 883.423 190.264C880.336 188.951 877.49 193.134 878.626 197.407C880.648 205.011 886.59 213.371 903.305 211.027C913.058 209.66 923.803 200.189 933.504 188.744V77.1661C917.903 83.5744 900.811 106.795 889.857 123.927Z" fill="#1F2937"/>
</g>
</g>
<defs>
<clipPath id="clip0_1781_5866">
<rect width="846" height="134" fill="white"/>
</clipPath>
<clipPath id="clip1_1781_5866">
<rect width="846" height="680" fill="white"/>
</clipPath>
</defs>
</svg>
