<svg width="1440" height="948" viewBox="0 0 1440 948" fill="none" xmlns="http://www.w3.org/2000/svg">
<g opacity="0.6">
<path d="M163.304 75.7627C163.304 80.302 159.527 83.9819 154.867 83.9819L52.5032 83.9819C47.8438 83.9819 44.0667 80.3021 44.0666 75.7627C44.0666 71.2233 47.8438 67.5435 52.5032 67.5435L154.867 67.5434C159.527 67.5434 163.304 71.2233 163.304 75.7627Z" fill="#F0CE36"/>
<path d="M154.867 33.5705C159.527 33.5705 163.304 37.2504 163.304 41.7897L163.304 75.7627C163.304 80.302 159.527 83.9819 154.867 83.9819C150.208 83.9819 146.431 80.302 146.431 75.7626L146.431 41.7897C146.431 37.2504 150.208 33.5705 154.867 33.5705Z" fill="#F0CE36"/>
</g>
<ellipse cx="402.454" cy="29.0317" rx="15.2509" ry="13.5258" fill="#F0CE36"/>
<rect width="45.1171" height="3.20533" transform="matrix(0.995379 -0.317695 0.348889 0.886789 197.249 760.564)" fill="#FCA5A6"/>
<rect width="44.7957" height="3.67408" transform="matrix(0.361946 0.881633 0.992709 -0.32613 240.286 746.894)" fill="#FCA5A6"/>
<ellipse opacity="0.61" cx="1241.79" cy="224.63" rx="9.243" ry="8.19745" fill="#F2994A"/>
<ellipse opacity="0.8" cx="1392.76" cy="75.57" rx="9.243" ry="8.19746" fill="#D15545"/>
<rect width="45.1171" height="3.20532" transform="matrix(0.995379 -0.317695 0.348889 0.886788 1293.06 615.323)" fill="#FCA5A6"/>
<rect width="44.7957" height="3.67409" transform="matrix(0.361946 0.881633 0.992709 -0.32613 1336.09 601.65)" fill="#FCA5A6"/>
<ellipse opacity="0.5" cx="355.32" cy="115.592" rx="9.243" ry="8.19748" fill="#3F9ECC"/>
<rect width="21.1643" height="2.55749" transform="matrix(0.841439 -0.567967 0.639272 0.748757 580.847 192.917)" fill="#FCA5A6"/>
<rect width="21.0421" height="2.68273" transform="matrix(0.64882 0.740557 0.835809 -0.576282 597.912 181.414)" fill="#FCA5A6"/>
<rect width="21.1642" height="2.55748" transform="matrix(0.841438 -0.567969 0.63927 0.748758 858.082 192.918)" fill="#FCA5A6"/>
<rect width="21.0421" height="2.68274" transform="matrix(0.64882 0.740557 0.83581 -0.576282 875.148 181.413)" fill="#FCA5A6"/>
<ellipse opacity="0.8" cx="1140.15" cy="96.3978" rx="5.08363" ry="4.50859" fill="#F2C94C"/>
<path opacity="0.3" d="M161.916 602.548C161.916 616.13 148.881 627.141 132.801 627.141C116.721 627.141 103.685 616.13 103.685 602.548C103.685 588.966 116.721 577.956 132.801 577.956C148.881 577.956 161.916 588.966 161.916 602.548ZM107.987 602.548C107.987 614.124 119.097 623.507 132.801 623.507C146.505 623.507 157.614 614.124 157.614 602.548C157.614 590.973 146.505 581.59 132.801 581.59C119.097 581.59 107.987 590.973 107.987 602.548Z" fill="#707C97"/>
<ellipse cx="113.16" cy="228.057" rx="4.14738" ry="3.60081" fill="#2AB2AF"/>
<ellipse opacity="0.25" cx="556.228" cy="189.18" rx="5.70265" ry="5.40125" fill="#2AB2AF"/>
<ellipse cx="706.91" cy="478.344" rx="9.243" ry="8.19745" fill="#2AB2AF"/>
</svg>
