<svg width="122" height="101" viewBox="0 0 122 101" fill="none" xmlns="http://www.w3.org/2000/svg">
<path fill-rule="evenodd" clip-rule="evenodd" d="M74.3682 16.8597C70.2167 17.3871 66.0741 18.5492 62.072 20.3946C41.021 30.1012 31.8247 55.0352 41.5313 76.0861C42.6647 78.5443 44.0058 80.8408 45.5241 82.9644C28.8369 84.3625 12.3093 75.3674 4.89148 59.2803C-4.58388 38.7309 4.39341 14.391 24.9428 4.91569C42.5449 -3.20069 62.9283 2.22211 74.3682 16.8597ZM75.5296 16.7287C63.8848 1.36899 42.7492 -4.39605 24.5241 4.00758C3.47314 13.7142 -5.72324 38.6481 3.98337 59.699C11.6725 76.3746 28.9169 85.6114 46.2172 83.9056C57.862 99.2654 78.9976 105.03 97.2227 96.6268C118.274 86.9202 127.47 61.9862 117.763 40.9353C110.074 24.2597 92.8299 15.023 75.5296 16.7287Z" fill="#F05656"/>
</svg>
